<?xml version="1.0" standalone="no"?>
<!DOCTYPE svg PUBLIC "-//W3C//DTD SVG 20010904//EN"
 "http://www.w3.org/TR/2001/REC-SVG-20010904/DTD/svg10.dtd">
<svg version="1.0" xmlns="http://www.w3.org/2000/svg"
 width="471.000000pt" height="471.000000pt" viewBox="0 0 471.000000 471.000000"
 preserveAspectRatio="xMidYMid meet">
<metadata>
Created by potrace 1.11, written by Peter Selinger 2001-2013
</metadata>
<g transform="translate(0.000000,471.000000) scale(0.100000,-0.100000)"
fill="#000000" stroke="none">
<path d="M2166 4458 c-398 -34 -808 -201 -1130 -458 -526 -419 -831 -1118
-777 -1781 62 -763 496 -1406 1173 -1739 587 -288 1259 -288 1846 0 429 211
751 533 962 962 288 587 288 1259 0 1846 -211 429 -533 751 -962 962 -350 172
-727 242 -1112 208z m146 -204 c17 -36 34 -62 38 -57 4 4 17 34 30 66 35 90
50 77 50 -48 0 -63 -4 -105 -10 -105 -6 0 -10 29 -10 68 l-1 67 -30 -57 c-16
-32 -31 -58 -34 -58 -3 0 -18 26 -35 58 l-29 57 2 -69 c1 -48 -2 -71 -11 -74
-8 -2 -12 13 -12 55 0 32 -3 82 -6 111 -6 45 -4 52 10 52 11 0 28 -23 48 -66z
m190 15 l22 -51 23 46 c13 25 30 46 38 46 20 0 20 0 -20 -76 -20 -38 -35 -80
-35 -100 0 -19 -4 -34 -10 -34 -11 0 -13 11 -11 50 1 14 -12 58 -28 98 -24 57
-27 72 -15 72 9 0 24 -22 36 -51z m-349 -1 c41 -55 14 -168 -43 -176 -63 -10
-100 32 -100 113 0 36 6 51 25 71 34 34 90 30 118 -8z m605 13 c36 -7 41 -28
5 -23 -19 2 -22 -3 -28 -55 -12 -112 -17 -134 -28 -130 -7 3 -11 8 -11 13 1 5
5 48 9 96 7 84 6 86 -16 90 -12 2 -24 9 -27 15 -4 13 0 13 96 -6z m-813 -17
c44 -17 63 -146 26 -183 -17 -17 -90 -45 -98 -38 -1 2 -10 39 -18 83 -9 43
-18 89 -20 101 -4 16 1 24 23 31 32 12 64 14 87 6z m949 -36 c3 -13 10 -61 16
-107 5 -46 12 -86 13 -88 2 -1 18 15 36 37 l32 40 -15 54 c-20 68 -20 69 3 56
12 -6 22 -26 26 -50 4 -22 9 -40 13 -40 3 0 17 14 31 30 20 23 30 28 41 20 12
-8 9 -16 -22 -47 l-37 -38 14 -60 c7 -33 11 -62 8 -65 -9 -10 -32 32 -38 73
l-7 40 -32 -37 c-28 -34 -33 -36 -58 -27 -22 8 -28 17 -28 39 0 24 -6 30 -34
39 -31 10 -35 8 -45 -13 -6 -13 -17 -24 -25 -24 -13 0 -13 5 1 38 56 134 96
183 107 130z m-1144 -17 c0 -5 -16 -15 -36 -21 -30 -10 -35 -16 -30 -34 3 -11
6 -27 6 -34 0 -9 10 -11 38 -7 35 6 36 5 18 -9 -11 -9 -26 -16 -33 -16 -9 0
-11 -9 -6 -32 8 -43 8 -43 48 -31 26 8 35 8 35 -1 0 -12 -88 -47 -94 -37 -7
11 -46 168 -46 185 0 9 15 22 33 30 38 17 67 20 67 7z m1453 -78 c24 -13 28
-18 15 -21 -9 -2 -27 2 -39 8 -24 13 -34 6 -43 -31 -5 -23 -1 -28 25 -39 19
-8 27 -16 21 -22 -6 -6 -18 -6 -32 2 -26 14 -26 14 -35 -28 -6 -30 -4 -34 24
-45 17 -6 31 -17 31 -24 0 -9 -10 -8 -37 3 -21 9 -42 20 -47 25 -6 5 -1 47 14
108 26 111 21 108 103 64z m-1589 11 c18 -17 21 -51 7 -73 -7 -10 1 -27 26
-58 30 -37 33 -43 16 -43 -11 0 -32 14 -48 30 -47 49 -53 38 -29 -47 4 -16 2
-23 -8 -23 -10 0 -25 33 -45 99 l-30 99 31 15 c40 20 61 21 80 1z m-134 -42
c0 -5 -15 -17 -34 -27 -32 -17 -33 -20 -23 -52 8 -25 15 -32 26 -27 34 14 51
16 51 7 0 -5 -11 -15 -25 -21 -28 -13 -29 -19 -15 -57 9 -25 11 -25 39 -10 35
18 41 18 41 5 0 -11 -87 -57 -93 -49 -7 8 -68 191 -65 194 8 7 84 44 91 45 4
0 7 -4 7 -8z m1840 -32 c29 -29 14 -47 -15 -20 -40 38 -64 -3 -26 -44 34 -36
36 -72 8 -100 -28 -28 -55 -26 -83 5 -13 14 -14 23 -7 30 8 8 14 5 22 -10 13
-24 46 -28 54 -7 3 8 -5 29 -19 47 -26 35 -32 87 -12 107 18 18 56 14 78 -8z
m-1937 -127 c24 -69 31 -100 23 -105 -7 -5 -18 9 -30 37 l-18 45 -32 -22 c-17
-12 -32 -22 -34 -24 -2 -1 5 -20 14 -43 12 -31 14 -45 6 -53 -8 -8 -16 1 -30
33 -11 24 -30 68 -42 97 -19 45 -21 55 -9 62 10 7 17 -1 28 -28 19 -49 16 -48
56 -26 40 21 40 20 20 68 -15 35 -13 56 4 56 5 0 24 -44 44 -97z m1172 77
c402 -47 766 -225 1043 -514 399 -415 551 -972 426 -1563 -5 -25 -12 -33 -28
-33 -33 0 -41 12 -41 55 l0 40 -110 0 -110 0 0 -43 0 -42 -55 -16 c-62 -18
-121 -46 -143 -68 -12 -13 -59 -16 -256 -19 l-241 -5 0 47 c0 26 -5 52 -12 59
-9 9 -9 12 0 12 7 0 12 11 12 24 0 18 -6 25 -22 28 -16 2 -24 11 -25 28 -2 26
-5 291 -3 300 7 31 7 41 -2 46 -6 4 -284 7 -617 7 l-606 0 4 -144 c4 -176 -4
-239 -29 -239 -16 0 -18 -10 -19 -76 0 -41 -3 -79 -6 -84 -2 -4 -113 -6 -246
-3 -197 3 -244 6 -256 19 -23 22 -82 50 -146 69 l-57 16 0 45 0 45 -107 -3
-108 -3 0 -40 c0 -43 -8 -55 -41 -55 -16 0 -23 8 -28 33 -56 263 -59 496 -10
735 36 177 131 412 230 568 340 536 983 845 1609 774z m959 -65 c26 -24 34
-45 17 -45 -5 0 -14 7 -21 16 -35 42 -72 39 -95 -7 -29 -54 -8 -129 34 -129
20 0 36 37 18 43 -5 1 -8 9 -6 16 4 10 10 8 26 -6 21 -17 21 -20 8 -50 -16
-38 -40 -42 -78 -13 -51 40 -58 121 -16 175 27 34 76 34 113 0z m-2294 -120
c14 -78 17 -111 9 -116 -7 -4 -33 17 -62 49 -39 43 -49 50 -44 31 41 -176 36
-183 -58 -89 -54 55 -67 72 -57 82 9 9 22 3 57 -32 49 -48 51 -45 34 44 -17
83 -3 89 56 24 l48 -53 -7 35 c-15 79 -18 110 -12 126 10 27 15 14 36 -101z
m2419 29 c55 -39 62 -130 14 -179 -34 -33 -68 -32 -105 5 -28 29 -30 35 -26
87 4 46 10 61 32 80 32 27 53 29 85 7z m137 -118 c18 -29 15 -66 -6 -76 -8 -4
-26 -12 -38 -19 -13 -7 -27 -10 -30 -6 -11 10 14 40 36 43 38 6 35 62 -4 62
-8 0 -14 5 -14 10 0 20 40 9 56 -14z m-86 -146 c0 -11 -4 -20 -9 -20 -14 0
-23 18 -16 30 10 17 25 11 25 -10z m-1870 -1425 c0 -83 -4 -135 -10 -135 -6 0
-10 52 -10 135 0 83 4 135 10 135 6 0 10 -52 10 -135z m50 0 c0 -83 -4 -135
-10 -135 -6 0 -10 52 -10 135 0 83 4 135 10 135 6 0 10 -52 10 -135z m62 0 c3
-115 1 -135 -12 -135 -13 0 -15 22 -15 135 0 98 3 135 12 135 8 0 13 -39 15
-135z m88 0 l0 -135 -27 0 -28 0 0 135 0 135 28 0 27 0 0 -135z m90 0 l0 -135
-30 0 -30 0 0 135 0 135 30 0 30 0 0 -135z m100 0 l0 -135 -35 0 -35 0 0 135
0 135 35 0 35 0 0 -135z m102 0 l3 -135 -37 0 -38 0 0 135 0 135 34 0 35 0 3
-135z m98 0 l0 -135 -32 0 -33 0 0 135 0 135 33 0 32 0 0 -135z m105 0 l0
-135 -37 0 -38 0 0 135 0 135 38 0 37 0 0 -135z m105 0 l0 -135 -35 0 -35 0 0
135 0 135 35 0 35 0 0 -135z m90 0 l0 -135 -30 0 -30 0 0 135 0 135 30 0 30 0
0 -135z m80 0 l0 -135 -25 0 -25 0 0 135 0 135 25 0 25 0 0 -135z m65 0 c0
-113 -2 -135 -15 -135 -13 0 -15 22 -15 135 0 113 2 135 15 135 13 0 15 -22
15 -135z m55 0 c0 -83 -4 -135 -10 -135 -6 0 -10 52 -10 135 0 83 4 135 10
135 6 0 10 -52 10 -135z m45 0 c0 -74 -3 -135 -7 -135 -5 0 -8 61 -8 135 0 74
3 135 8 135 4 0 7 -61 7 -135z m-2085 -216 c0 -20 -15 -26 -25 -9 -9 15 3 43
15 35 5 -3 10 -15 10 -26z m40 6 c0 -14 -4 -25 -10 -25 -11 0 -14 33 -3 43 11
11 13 8 13 -18z m50 -6 c0 -10 -7 -19 -15 -19 -15 0 -21 31 -9 43 11 10 24 -3
24 -24z m2850 0 c0 -12 -5 -19 -11 -17 -6 2 -10 7 -10 11 1 4 1 14 1 23 0 8 5
12 10 9 6 -3 10 -15 10 -26z m40 6 c0 -14 -4 -25 -10 -25 -11 0 -14 33 -3 43
11 11 13 8 13 -18z m50 0 c0 -14 -4 -25 -10 -25 -5 0 -10 11 -10 25 0 14 5 25
10 25 6 0 10 -11 10 -25z m-3080 -6 c0 -11 -4 -17 -10 -14 -5 3 -10 13 -10 21
0 8 5 14 10 14 6 0 10 -9 10 -21z m180 1 c0 -11 -4 -20 -10 -20 -5 0 -10 9
-10 20 0 11 5 20 10 20 6 0 10 -9 10 -20z m2770 6 c0 -17 -14 -29 -23 -20 -8
8 3 34 14 34 5 0 9 -6 9 -14z m180 -6 c0 -11 -4 -20 -10 -20 -5 0 -10 9 -10
20 0 11 5 20 10 20 6 0 10 -9 10 -20z m-1877 -37 c-62 -2 -164 -2 -225 0 -62
1 -12 3 112 3 124 0 174 -2 113 -3z m144 1 c-3 -3 -12 -4 -19 -1 -8 3 -5 6 6
6 11 1 17 -2 13 -5z m43 -4 c0 -5 -8 -10 -17 -10 -15 0 -16 2 -3 10 19 12 20
12 20 0z m265 0 c3 -5 2 -10 -4 -10 -5 0 -13 5 -16 10 -3 6 -2 10 4 10 5 0 13
-4 16 -10z m373 3 c-64 -2 -172 -2 -240 0 -68 1 -15 3 117 3 132 0 187 -2 123
-3z m-335 -190 c-100 -2 -266 -2 -370 0 -103 1 -21 2 182 2 204 0 288 -1 188
-2z m-514 -258 c2 -137 -1 -185 -9 -185 -8 0 -11 -11 -8 -30 4 -29 3 -30 -32
-30 -35 0 -36 1 -32 30 2 17 0 30 -6 30 -11 0 -16 298 -5 338 5 22 20 29 64
31 l26 1 2 -185z m124 158 c10 -52 7 -343 -4 -343 -6 0 -9 -12 -7 -27 2 -22 8
-28 28 -28 22 0 25 4 24 35 -2 44 -5 337 -4 368 0 19 5 22 45 22 40 0 45 -3
46 -22 0 -25 -3 -312 -5 -368 -1 -31 2 -35 24 -35 20 0 26 6 28 28 2 15 0 27
-5 27 -6 0 -8 149 -3 353 0 14 9 17 46 17 l46 0 -3 -212 -3 -213 22 -3 c27 -4
40 23 23 50 -9 14 -12 72 -10 199 l2 179 48 0 48 0 -2 -215 c-2 -215 -2 -215
20 -215 26 0 33 17 21 50 -5 13 -8 105 -7 202 l2 178 48 0 48 0 -2 -215 c-1
-118 0 -215 3 -215 3 0 5 -24 5 -52 l0 -53 45 -6 c40 -4 41 -6 15 -10 -30 -4
-30 -4 -30 -71 1 -37 3 -70 6 -73 4 -3 144 -6 313 -7 168 -2 306 -5 306 -8 0
-3 -35 -26 -77 -52 -282 -170 -588 -258 -903 -258 -245 0 -526 67 -749 178
-95 49 -205 115 -215 130 -2 4 135 8 305 9 170 1 314 5 319 8 6 3 10 37 10 76
l0 69 -37 2 c-34 1 -33 2 12 7 l50 6 0 50 c0 29 5 53 13 58 12 8 17 49 7 59
-5 4 -8 229 -5 346 0 19 5 22 44 22 40 0 44 -3 49 -27z m629 11 c10 -6 11
-302 2 -368 -6 -44 -8 -46 -41 -46 -30 0 -33 2 -27 24 3 13 1 27 -6 31 -8 5
-11 62 -9 192 l2 185 36 -7 c20 -4 39 -9 43 -11z m-1262 -163 c0 -92 -3 -189
-6 -215 -6 -44 -8 -46 -39 -46 -29 0 -31 2 -27 30 3 18 0 30 -7 30 -12 0 -16
265 -5 333 6 35 8 37 45 37 l39 0 0 -169z m129 5 c1 -90 -1 -187 -5 -215 -6
-49 -8 -51 -39 -51 -31 0 -33 2 -38 48 -5 39 -10 243 -7 355 0 25 3 27 44 27
l44 0 1 -164z m129 9 c2 -82 1 -178 -3 -212 l-7 -63 -34 0 c-31 0 -34 3 -34
28 0 16 -2 31 -6 34 -4 5 -6 166 -4 344 0 23 3 25 43 22 l42 -3 3 -150z m122
138 c3 -98 0 -337 -5 -341 -3 -3 -5 -18 -5 -33 0 -27 -15 -39 -49 -39 -14 0
-17 6 -13 30 3 18 0 30 -7 30 -12 0 -16 265 -5 333 6 35 8 37 45 37 30 0 39
-4 39 -17z m994 -20 c10 -63 7 -333 -4 -333 -5 0 -10 -14 -10 -31 0 -24 -3
-30 -16 -25 -9 3 -19 6 -23 6 -4 0 -6 14 -3 30 3 18 0 30 -7 30 -8 0 -11 48
-11 158 0 189 3 202 40 202 24 0 28 -5 34 -37z m126 10 c3 -112 -2 -316 -7
-355 -5 -46 -7 -48 -38 -48 -31 0 -33 2 -39 51 -4 28 -6 125 -5 215 l1 164 44
0 c41 0 44 -2 44 -27z m130 0 c3 -112 -2 -316 -7 -355 -5 -46 -7 -48 -38 -48
-31 0 -33 2 -39 46 -3 26 -6 123 -6 215 l0 169 45 0 c42 0 45 -2 45 -27z m124
-10 c11 -68 7 -333 -5 -333 -7 0 -10 -12 -7 -30 4 -28 2 -30 -27 -30 -31 0
-33 2 -39 46 -3 26 -6 123 -6 215 l0 169 39 0 c37 0 39 -2 45 -37z m-2374 -79
c0 -8 -7 -14 -15 -14 -15 0 -21 21 -9 33 10 9 24 -2 24 -19z m200 1 c0 -18 -5
-25 -20 -25 -15 0 -20 7 -20 25 0 18 5 25 20 25 15 0 20 -7 20 -25z m160 0 c0
-18 -5 -25 -19 -25 -13 0 -18 7 -18 25 0 18 5 25 18 25 14 0 19 -7 19 -25z
m2230 0 c0 -18 -5 -25 -20 -25 -15 0 -20 7 -20 25 0 18 5 25 20 25 15 0 20 -7
20 -25z m160 0 c0 -18 -5 -25 -20 -25 -15 0 -20 7 -20 25 0 18 5 25 20 25 15
0 20 -7 20 -25z m190 -1 c0 -8 -7 -14 -15 -14 -15 0 -21 21 -9 33 10 9 24 -2
24 -19z m-2740 -219 c0 -48 -2 -55 -20 -55 -18 0 -20 7 -20 55 0 48 2 55 20
55 18 0 20 -7 20 -55z m160 45 c0 -5 -9 -10 -20 -10 -11 0 -20 5 -20 10 0 6 9
10 20 10 11 0 20 -4 20 -10z m2230 -45 c0 -48 -2 -55 -20 -55 -17 0 -20 7 -20
40 0 31 4 40 18 41 16 1 16 2 0 6 -24 6 -23 23 2 23 18 0 20 -7 20 -55z m160
0 c0 -48 -2 -55 -20 -55 -18 0 -20 7 -20 55 0 48 2 55 20 55 18 0 20 -7 20
-55z m-2390 -15 c0 -33 -3 -40 -20 -40 -17 0 -20 7 -20 40 0 33 3 40 20 40 17
0 20 -7 20 -40z m0 -200 c0 -60 -29 -50 -36 11 -3 23 0 29 16 29 17 0 20 -7
20 -40z m245 -40 l0 -75 -30 0 c-30 0 -30 0 -33 64 -4 81 1 93 35 89 28 -3 28
-4 28 -78z m130 0 l0 -75 -30 0 c-30 0 -30 0 -33 64 -4 81 1 93 35 89 28 -3
28 -4 28 -78z m125 0 l0 -80 -30 0 -30 0 0 80 0 80 30 0 30 0 0 -80z m116 65
c14 -13 14 -15 0 -15 -13 0 -16 -13 -16 -65 0 -51 -3 -65 -15 -65 -12 0 -15
16 -15 80 0 66 3 80 16 80 8 0 22 -7 30 -15z m1002 -67 l-2 -83 -3 68 c-4 65
-5 67 -31 67 l-27 0 25 14 c14 8 28 14 33 15 4 1 6 -36 5 -81z m132 2 l0 -80
-30 0 c-16 0 -30 3 -30 8 -1 15 -2 137 -1 145 1 4 15 7 31 7 l30 0 0 -80z
m125 0 l0 -75 -30 0 c-30 0 -30 0 -33 64 -4 81 1 93 35 89 28 -3 28 -4 28 -78z
m130 0 l0 -75 -30 0 c-30 0 -30 0 -33 64 -4 81 1 93 35 89 28 -3 28 -4 28 -78z
m225 52 c0 -16 -9 -37 -20 -47 -20 -18 -20 -17 -20 28 0 40 3 47 20 47 15 0
20 -7 20 -28z m-2294 -223 l-7 -41 29 21 c35 25 44 18 36 -26 -7 -37 4 -42 31
-13 14 15 22 17 37 9 16 -9 18 -17 13 -52 l-7 -42 24 23 c38 35 51 29 43 -20
l-7 -43 29 28 c41 38 66 28 61 -24 -4 -44 1 -48 27 -19 26 29 35 25 35 -15 0
-42 4 -43 34 -8 12 14 25 22 29 17 6 -11 -59 -94 -74 -94 -5 0 -9 19 -9 42 l0
41 -23 -21 c-40 -38 -51 -29 -43 35 l7 58 -39 -38 c-21 -20 -42 -37 -46 -37
-4 0 -6 18 -4 40 2 22 2 40 0 40 -2 0 -17 -9 -33 -21 -24 -17 -30 -18 -35 -6
-3 9 -1 32 5 53 6 21 9 40 6 42 -2 2 -22 -10 -43 -27 -22 -17 -42 -28 -45 -24
-4 3 -4 24 0 46 l6 41 -32 -23 c-18 -13 -35 -20 -38 -17 -3 3 -1 31 6 61 15
65 37 76 27 14z m2362 9 c31 -31 -2 -108 -47 -108 -46 0 -68 65 -34 102 18 20
63 24 81 6z m-142 -71 c-24 -19 -28 -28 -22 -50 7 -31 45 -37 66 -12 7 9 15
13 18 10 11 -11 -33 -45 -59 -45 -30 0 -49 23 -49 59 0 23 37 61 59 61 11 0 6
-8 -13 -23z m-94 -84 c24 -22 23 -58 -4 -83 -25 -23 -47 -25 -70 -7 -30 23
-31 55 -4 82 29 29 52 32 78 8z m59 -46 c-13 -13 -26 -3 -16 12 3 6 11 8 17 5
6 -4 6 -10 -1 -17z m-184 7 c-4 -4 -17 -12 -29 -18 -13 -6 -24 -20 -26 -29 -5
-26 25 -56 49 -50 21 6 27 33 7 33 -9 0 -9 3 1 13 10 10 15 8 27 -8 14 -18 13
-22 -7 -37 -27 -22 -57 -23 -81 -1 -26 23 -22 58 8 82 24 19 67 31 51 15z
m-1537 -86 l1 -43 27 33 c31 38 42 34 42 -17 l0 -36 24 30 c37 46 42 22 6 -30
-35 -51 -50 -51 -50 1 0 41 -6 42 -32 9 -30 -38 -38 -31 -38 35 0 33 4 60 10
60 6 0 10 -19 10 -42z m1423 32 c-31 -13 -29 -28 5 -32 49 -6 36 -78 -15 -78
-20 0 -15 17 7 23 29 7 24 25 -7 29 -21 2 -29 9 -31 27 -4 26 12 41 43 40 18
0 18 -1 -2 -9z m-80 -27 c-29 -20 -31 -47 -3 -40 23 6 27 -8 5 -17 -8 -3 -15
-13 -15 -21 0 -13 6 -15 33 -10 24 5 29 4 21 -4 -6 -7 -23 -13 -39 -14 -29 -2
-30 -1 -48 75 -6 22 -3 28 21 36 40 15 50 13 25 -5z m-77 -47 c-6 -29 -3 -37
14 -46 23 -12 28 -35 5 -26 -8 3 -21 9 -29 12 -9 3 -17 -2 -21 -15 -7 -24 -44
-38 -55 -21 -11 17 -60 4 -60 -15 0 -8 -4 -15 -10 -15 -13 0 -13 7 1 70 6 27
15 50 20 50 5 0 22 -18 37 -40 31 -46 39 -48 51 -17 7 16 4 27 -12 44 -25 28
-15 43 13 18 19 -17 20 -17 29 9 15 37 24 32 17 -8z m-1109 4 c-3 -13 1 -24
13 -30 28 -15 40 -12 40 10 0 11 5 20 10 20 13 0 13 -25 -1 -72 -11 -42 -35
-54 -25 -13 5 20 2 27 -16 34 -28 11 -38 6 -38 -20 0 -10 -4 -19 -10 -19 -13
0 -13 24 2 71 11 39 35 56 25 19z m-217 0 c0 -5 -4 -10 -10 -10 -5 0 -10 5
-10 10 0 6 5 10 10 10 6 0 10 -4 10 -10z m370 -20 c12 -8 9 -10 -12 -10 -18 0
-28 -5 -28 -15 0 -8 7 -15 15 -15 8 0 15 -4 15 -10 0 -5 -9 -10 -20 -10 -30 0
-24 -27 8 -38 l27 -10 -25 -1 c-43 -1 -53 12 -45 60 4 24 9 47 12 52 6 10 35
9 53 -3z m757 -14 c-15 -12 -17 -22 -12 -60 5 -30 4 -46 -3 -46 -6 0 -14 20
-18 45 -5 35 -10 45 -25 45 -22 0 -49 -47 -49 -85 0 -15 -4 -24 -10 -20 -5 3
-10 13 -10 22 0 8 -9 28 -21 45 -26 36 -15 53 11 18 l19 -25 10 27 c8 20 20
29 53 36 65 15 77 14 55 -2z m-663 -11 c16 -16 12 -45 -6 -45 -6 0 -7 -8 -3
-17 4 -10 9 -24 12 -30 3 -7 0 -13 -6 -13 -6 0 -16 11 -21 25 -11 30 -30 33
-30 5 0 -11 -4 -20 -10 -20 -11 0 -13 33 -4 79 5 24 12 31 30 31 12 0 29 -7
38 -15z m86 -2 l25 -7 -29 -6 c-37 -6 -43 -23 -14 -38 l23 -11 -23 0 c-32 -1
-25 -33 8 -42 21 -6 20 -7 -12 -8 -37 -1 -38 0 -38 37 0 77 10 89 60 75z m117
-24 c18 -16 16 -59 -4 -81 -9 -10 -30 -18 -50 -18 l-33 0 0 53 c0 30 3 57 7
61 10 10 62 -1 80 -15z m277 5 c10 -26 7 -106 -4 -99 -5 3 -10 21 -10 38 l-1
32 -15 -27 c-17 -33 -40 -36 -49 -8 -9 27 -27 25 -25 -2 4 -40 -2 -54 -10 -28
-14 45 -12 100 5 100 8 0 15 -3 15 -7 0 -5 9 -19 19 -33 l19 -24 18 37 c19 40
29 46 38 21z m-150 -16 c21 -30 20 -47 -6 -75 -28 -30 -52 -29 -77 3 -25 32
-26 43 -5 72 20 30 68 30 88 0z"/>
<path d="M2055 4260 c-22 -24 -17 -113 8 -137 25 -25 63 -9 77 31 27 82 -36
160 -85 106z"/>
<path d="M1880 4240 c-12 -7 -12 -19 -1 -87 7 -43 15 -80 17 -82 2 -2 15 1 29
7 35 16 47 53 36 105 -13 56 -46 80 -81 57z"/>
<path d="M2851 4168 c-15 -42 -14 -45 9 -51 19 -5 20 -1 18 34 -3 51 -13 58
-27 17z"/>
<path d="M1546 4121 c-3 -5 -4 -16 -1 -25 3 -9 7 -23 10 -31 4 -13 9 -14 25
-5 29 15 24 64 -7 68 -11 2 -24 -1 -27 -7z"/>
<path d="M2357 3910 c-19 -45 -21 -77 -8 -113 7 -18 6 -30 -4 -43 -8 -11 -11
-31 -8 -47 4 -19 -1 -37 -14 -55 -11 -15 -23 -37 -27 -50 -4 -12 -12 -22 -17
-22 -5 0 -9 -7 -9 -15 0 -8 5 -15 11 -15 5 0 8 -4 4 -9 -3 -5 -1 -12 5 -16 15
-9 12 -126 -4 -144 -7 -9 -16 -33 -19 -53 l-6 -38 114 0 114 0 -3 42 c-2 23
-9 44 -15 46 -16 5 -14 131 3 164 12 23 12 29 1 38 -8 7 -17 22 -21 33 -3 12
-13 30 -22 39 -20 24 -33 110 -23 163 9 47 -7 135 -24 135 -6 0 -18 -18 -28
-40z m-20 -487 c-2 -21 -4 -6 -4 32 0 39 2 55 4 38 2 -18 2 -50 0 -70z m43 26
c0 -38 -3 -68 -7 -66 -8 5 -5 137 3 137 2 0 4 -32 4 -71z m50 1 c0 -40 -4 -70
-10 -70 -6 0 -10 30 -10 70 0 40 4 70 10 70 6 0 10 -30 10 -70z"/>
<path d="M2226 3264 c-3 -9 -6 -20 -6 -25 0 -5 70 -9 161 -9 143 0 160 2 155
16 -3 9 -6 20 -6 25 0 5 -65 9 -149 9 -127 0 -150 -2 -155 -16z"/>
<path d="M2218 3211 c-20 -4 -49 -16 -65 -27 -15 -10 -31 -18 -34 -17 -13 4
-98 -96 -122 -144 -33 -64 -60 -159 -54 -189 3 -19 -2 -26 -25 -36 -22 -10
-28 -18 -25 -35 2 -13 1 -23 -3 -23 -6 0 -30 -44 -30 -55 0 -3 232 -5 515 -5
451 0 515 2 515 15 0 8 -9 24 -20 35 -11 11 -15 20 -10 20 17 0 11 30 -7 37
-32 12 -40 27 -46 86 -7 67 -43 151 -93 217 -40 53 -124 112 -164 115 -15 1
-31 4 -36 7 -14 8 -255 7 -296 -1z m-236 -326 c-2 -14 -9 -25 -14 -25 -5 0 -7
3 -5 8 2 4 7 15 10 25 9 25 15 21 9 -8z m33 -13 c-10 -10 -16 -12 -13 -7 3 6
8 19 13 30 5 14 9 16 12 7 3 -8 -3 -21 -12 -30z m69 16 c-8 -28 -12 -33 -20
-25 -9 8 6 47 17 47 6 0 7 -10 3 -22z m54 0 c-5 -32 -28 -35 -28 -4 0 17 5 26
16 26 10 0 14 -7 12 -22z m52 -3 c0 -14 -4 -25 -10 -25 -5 0 -10 11 -10 25 0
14 5 25 10 25 6 0 10 -11 10 -25z m70 0 c0 -14 -4 -25 -10 -25 -5 0 -10 11
-10 25 0 14 5 25 10 25 6 0 10 -11 10 -25z m70 0 c0 -14 -4 -25 -9 -25 -10 0
-21 36 -13 44 12 13 22 5 22 -19z m60 0 c0 -14 -4 -25 -10 -25 -5 0 -10 11
-10 25 0 14 5 25 10 25 6 0 10 -11 10 -25z m60 0 c0 -14 -4 -25 -9 -25 -10 0
-21 36 -13 44 12 13 22 5 22 -19z m70 0 c0 -14 -4 -25 -10 -25 -5 0 -10 11
-10 25 0 14 5 25 10 25 6 0 10 -11 10 -25z m60 0 c0 -14 -4 -25 -10 -25 -5 0
-10 11 -10 25 0 14 5 25 10 25 6 0 10 -11 10 -25z m60 16 c0 -5 3 -16 6 -25 4
-11 1 -16 -10 -16 -10 0 -16 9 -16 25 0 14 5 25 10 25 6 0 10 -4 10 -9z m50
-22 c0 -11 -4 -17 -10 -14 -5 3 -10 15 -10 26 0 11 5 17 10 14 6 -3 10 -15 10
-26z m60 -6 c0 -7 -4 -13 -10 -13 -5 0 -10 12 -10 28 0 21 2 24 10 12 5 -8 10
-21 10 -27z m40 -1 c0 -7 -4 -10 -10 -7 -5 3 -10 16 -10 28 0 18 2 19 10 7 5
-8 10 -21 10 -28z m-753 -58 c-3 -3 -12 -4 -19 -1 -8 3 -5 6 6 6 11 1 17 -2
13 -5z m650 0 c-3 -3 -12 -4 -19 -1 -8 3 -5 6 6 6 11 1 17 -2 13 -5z"/>
<path d="M1860 2560 l0 -110 520 0 521 0 -3 108 -3 107 -517 3 -518 2 0 -110z
m47 -37 c-2 -16 -4 -3 -4 27 0 30 2 43 4 28 2 -16 2 -40 0 -55z m40 -5 c-2
-18 -4 -6 -4 27 0 33 2 48 4 33 2 -15 2 -42 0 -60z m50 0 c-2 -18 -4 -6 -4 27
0 33 2 48 4 33 2 -15 2 -42 0 -60z m63 27 c0 -30 -4 -55 -10 -55 -5 0 -10 25
-10 55 0 30 5 55 10 55 6 0 10 -25 10 -55z m70 0 c0 -30 -4 -55 -10 -55 -5 0
-10 25 -10 55 0 30 5 55 10 55 6 0 10 -25 10 -55z m78 3 c-4 -74 -28 -77 -28
-4 0 44 3 56 16 56 12 0 14 -10 12 -52z m92 -3 c0 -42 -3 -55 -15 -55 -12 0
-15 13 -15 55 0 42 3 55 15 55 12 0 15 -13 15 -55z m80 0 c0 -30 -4 -55 -10
-55 -5 0 -10 25 -10 55 0 30 5 55 10 55 6 0 10 -25 10 -55z m90 -1 c0 -73 -24
-70 -28 4 -2 42 0 52 12 52 13 0 16 -12 16 -56z m80 1 c0 -30 -4 -55 -10 -55
-5 0 -10 25 -10 55 0 30 5 55 10 55 6 0 10 -25 10 -55z m90 0 c0 -42 -3 -55
-15 -55 -12 0 -15 13 -15 55 0 42 3 55 15 55 12 0 15 -13 15 -55z m60 0 c0
-30 -4 -55 -10 -55 -5 0 -10 25 -10 55 0 30 5 55 10 55 6 0 10 -25 10 -55z
m70 5 c0 -27 -3 -50 -7 -50 -5 0 -6 22 -5 50 5 65 12 65 12 0z m47 -32 c-2
-18 -4 -6 -4 27 0 33 2 48 4 33 2 -15 2 -42 0 -60z m40 5 c-2 -16 -4 -3 -4 27
0 30 2 43 4 28 2 -16 2 -40 0 -55z"/>
<path d="M1782 2428 c-7 -7 -12 -20 -12 -30 0 -17 29 -18 610 -18 336 0 610 2
610 4 0 3 -4 16 -10 30 l-10 26 -588 0 c-444 0 -591 -3 -600 -12z"/>
<path d="M3571 3829 c-45 -48 -32 -131 21 -137 51 -6 87 87 52 136 -19 28 -47
28 -73 1z"/>
<path d="M3507 884 c-12 -12 -8 -51 8 -64 26 -22 50 -8 50 30 0 30 -4 35 -25
38 -14 2 -29 0 -33 -4z"/>
<path d="M3271 727 c-18 -23 3 -69 30 -65 12 2 27 11 33 21 22 35 -35 76 -63
44z"/>
<path d="M2810 521 c0 -11 4 -21 9 -21 18 0 21 18 6 30 -13 10 -15 9 -15 -9z"/>
<path d="M2040 515 c0 -8 7 -15 15 -15 8 0 15 7 15 15 0 8 -7 15 -15 15 -8 0
-15 -7 -15 -15z"/>
<path d="M2220 471 c0 -46 6 -52 38 -40 39 15 24 79 -20 79 -14 0 -18 -8 -18
-39z"/>
<path d="M2345 486 c-13 -19 -14 -29 -5 -45 15 -29 48 -27 62 4 9 21 8 28 -7
45 -23 26 -31 25 -50 -4z"/>
</g>
</svg>
